REM DIRINDEX 1\2\3,1\2\4,1\2\5,1\2\6
REM DIRNAME folder01,folder02,folder03,folder04,folder05,folder06
TITLE ""
FILE "048 048.mp3" MP3
  TRACK 01 AUDIO
    TITLE "0:"
    INDEX 01 00:00:00
  TRACK 02 AUDIO
    TITLE "3:cjc157_1824"
    INDEX 01 00:00:07
  TRACK 03 AUDIO
    TITLE "0:"
    INDEX 01 00:01:42
  TRACK 04 AUDIO
    TITLE "4:cjc157_1825"
    INDEX 01 00:02:16
  TRACK 05 AUDIO
    TITLE "0:"
    INDEX 01 00:03:41
  TRACK 06 AUDIO
    TITLE "5:cjc157_1826"
    INDEX 01 00:04:11
  TRACK 07 AUDIO
    TITLE "0:"
    INDEX 01 00:06:30
  TRACK 08 AUDIO
    TITLE "5:cjc157_1827"
    INDEX 01 00:06:73
  TRACK 09 AUDIO
    TITLE "0:"
    INDEX 01 00:09:34
  TRACK 10 AUDIO
    TITLE "3:cjc157_1828"
    INDEX 01 00:10:02
  TRACK 11 AUDIO
    TITLE "0:"
    INDEX 01 00:11:33
  TRACK 12 AUDIO
    TITLE "4:cjc157_1829"
    INDEX 01 00:12:07
  TRACK 13 AUDIO
    TITLE "0:"
    INDEX 01 00:13:18
  TRACK 14 AUDIO
    TITLE "5:cjc157_1830"
    INDEX 01 00:13:67
  TRACK 15 AUDIO
    TITLE "0:"
    INDEX 01 00:16:48
  TRACK 16 AUDIO
    TITLE "5:cjc157_1831"
    INDEX 01 00:17:18
  TRACK 17 AUDIO
    TITLE "0:"
    INDEX 01 00:19:60
  TRACK 18 AUDIO
    TITLE "3:cjc157_1832"
    INDEX 01 00:20:30
  TRACK 19 AUDIO
    TITLE "0:"
    INDEX 01 00:21:45
  TRACK 20 AUDIO
    TITLE "4:cjc157_1833"
    INDEX 01 00:22:19
  TRACK 21 AUDIO
    TITLE "0:"
    INDEX 01 00:23:42
  TRACK 22 AUDIO
    TITLE "5:cjc157_1834"
    INDEX 01 00:24:10
  TRACK 23 AUDIO
    TITLE "0:"
    INDEX 01 00:26:50
  TRACK 24 AUDIO
    TITLE "5:cjc157_1835"
    INDEX 01 00:27:22
  TRACK 25 AUDIO
    TITLE "0:"
    INDEX 01 00:30:26
  TRACK 26 AUDIO
    TITLE "3:cjc157_1836"
    INDEX 01 00:31:00
  TRACK 27 AUDIO
    TITLE "0:"
    INDEX 01 00:32:11
  TRACK 28 AUDIO
    TITLE "4:cjc157_1837"
    INDEX 01 00:32:54
  TRACK 29 AUDIO
    TITLE "0:"
    INDEX 01 00:33:48
  TRACK 30 AUDIO
    TITLE "5:cjc157_1838"
    INDEX 01 00:34:18
  TRACK 31 AUDIO
    TITLE "0:"
    INDEX 01 00:35:55
  TRACK 32 AUDIO
    TITLE "5:cjc157_1839"
    INDEX 01 00:36:23
  TRACK 33 AUDIO
    TITLE "0:"
    INDEX 01 00:38:49
  TRACK 34 AUDIO
    TITLE "3:cjc157_1840"
    INDEX 01 00:39:15
  TRACK 35 AUDIO
    TITLE "0:"
    INDEX 01 00:40:64
  TRACK 36 AUDIO
    TITLE "4:cjc157_1841"
    INDEX 01 00:41:36
  TRACK 37 AUDIO
    TITLE "0:"
    INDEX 01 00:42:74
  TRACK 38 AUDIO
    TITLE "5:cjc157_1842"
    INDEX 01 00:43:42
  TRACK 39 AUDIO
    TITLE "0:"
    INDEX 01 00:47:42
  TRACK 40 AUDIO
    TITLE "5:cjc157_1843"
    INDEX 01 00:48:22
  TRACK 41 AUDIO
    TITLE "0:"
    INDEX 01 00:50:13
  TRACK 42 AUDIO
    TITLE "3:cjc157_1844"
    INDEX 01 00:50:58
  TRACK 43 AUDIO
    TITLE "0:"
    INDEX 01 00:52:32
  TRACK 44 AUDIO
    TITLE "4:cjc157_1845"
    INDEX 01 00:53:00
  TRACK 45 AUDIO
    TITLE "0:"
    INDEX 01 00:54:30
  TRACK 46 AUDIO
    TITLE "5:cjc157_1846"
    INDEX 01 00:54:74
  TRACK 47 AUDIO
    TITLE "0:"
    INDEX 01 00:59:53
  TRACK 48 AUDIO
    TITLE "3:cjc157_1847"
    INDEX 01 01:00:25
  TRACK 49 AUDIO
    TITLE "0:"
    INDEX 01 01:01:74
  TRACK 50 AUDIO
    TITLE "4:cjc157_1848"
    INDEX 01 01:02:42
  TRACK 51 AUDIO
    TITLE "0:"
    INDEX 01 01:04:01
  TRACK 52 AUDIO
    TITLE "5:cjc157_1849"
    INDEX 01 01:04:43
  TRACK 53 AUDIO
    TITLE "0:"
    INDEX 01 01:08:05
  TRACK 54 AUDIO
    TITLE "5:cjc157_1850"
    INDEX 01 01:08:52
  TRACK 55 AUDIO
    TITLE "0:"
    INDEX 01 01:10:30
  TRACK 56 AUDIO
    TITLE "3:cjc157_1851"
    INDEX 01 01:11:03
  TRACK 57 AUDIO
    TITLE "0:"
    INDEX 01 01:12:15
  TRACK 58 AUDIO
    TITLE "4:cjc157_1852"
    INDEX 01 01:12:64
  TRACK 59 AUDIO
    TITLE "0:"
    INDEX 01 01:14:16
  TRACK 60 AUDIO
    TITLE "5:cjc157_1853"
    INDEX 01 01:14:57
  TRACK 61 AUDIO
    TITLE "0:"
    INDEX 01 01:17:59
  TRACK 62 AUDIO
    TITLE "5:cjc157_1854"
    INDEX 01 01:18:31
  TRACK 63 AUDIO
    TITLE "0:"
    INDEX 01 01:22:19
  TRACK 64 AUDIO
    TITLE "3:cjc157_1855"
    INDEX 01 01:22:66
  TRACK 65 AUDIO
    TITLE "0:"
    INDEX 01 01:24:32
  TRACK 66 AUDIO
    TITLE "4:cjc157_1856"
    INDEX 01 01:25:00
  TRACK 67 AUDIO
    TITLE "0:"
    INDEX 01 01:26:32
  TRACK 68 AUDIO
    TITLE "5:cjc157_1857"
    INDEX 01 01:27:04
  TRACK 69 AUDIO
    TITLE "0:"
    INDEX 01 01:30:36
  TRACK 70 AUDIO
    TITLE "5:cjc157_1858"
    INDEX 01 01:31:08
  TRACK 71 AUDIO
    TITLE "0:"
    INDEX 01 01:36:11
  TRACK 72 AUDIO
    TITLE "3:cjc157_1859"
    INDEX 01 01:36:52
  TRACK 73 AUDIO
    TITLE "0:"
    INDEX 01 01:38:06
  TRACK 74 AUDIO
    TITLE "4:cjc157_1860"
    INDEX 01 01:38:51
  TRACK 75 AUDIO
    TITLE "0:"
    INDEX 01 01:39:66
  TRACK 76 AUDIO
    TITLE "5:cjc157_1861"
    INDEX 01 01:40:38
  TRACK 77 AUDIO
    TITLE "0:"
    INDEX 01 01:43:33
